<?xml version="1.0" encoding="utf-8"?>
<!-- Generator: Adobe Illustrator 25.2.1, SVG Export Plug-In . SVG Version: 6.00 Build 0)  -->
<svg width="171" height="32" version="1.1" id="Capa_1" xmlns="http://www.w3.org/2000/svg"
	xmlns:xlink="http://www.w3.org/1999/xlink" x="0px" y="0px"
	viewBox="0 0 171 32" style="enable-background:new 0 0 171 32;" xml:space="preserve">
<style type="text/css">
	.st0{fill:#00E2C5;}
	.st1{fill:#333333;}
	.st2{fill:url(#Fondo_Circ_1_);}
	.st3{fill:#FFFFFF;}
</style>
<symbol  id="Campana_2_" viewBox="-238.5 -243 477 486">
	<path class="st0" d="M-200.2-104c7.4-45.7,38-84.3,80.9-101.8c9.9-4,14.7-15.2,10.8-25.1c-1.2-3.1-3.3-5.8-5.9-7.9l0,0
		c-4.3-3.4-9.9-4.9-15.3-3.9c-65.4,11.9-111.9,70.5-108.7,136.9c0.3,5.5,3,10.6,7.3,14l0,0C-219.5-82.5-202.5-89.4-200.2-104z"/>
	<path class="st0" d="M197.9-104c-7.7-45.6-40.1-84.4-85.2-101.8c-14.5-5.6-17.4-23.7-5.2-33l0,0c4.6-3.5,10.5-4.9,16.2-3.9
		c68.9,11.9,118,70.5,114.6,136.9c-0.3,5.6-3.2,10.7-7.7,14l0,0C218.3-82.5,200.5-89.4,197.9-104z"/>
	<path class="st0" d="M33.8,207h-65.9c-5.4,0-9.7,4.3-9.8,9.6c0,1,0.2,2.1,0.5,3.1c5.5,16.4,22.3,23.3,42.2,23.3s36.7-6.9,42.3-23.3
		c1.6-5.1-1.2-10.6-6.3-12.2C35.9,207.2,34.9,207,33.8,207z"/>
	<path class="st0" d="M205.9,146.4c-17.7-12.6-50.4-44.7-50.4-110.4v-70.7c0-71.8-44.9-134.9-110.5-155.3c0,0-10.3-41.3-44-41.3
		S-43.2-190-43.2-190c-65.7,20.4-110.5,83.6-110.5,155.3V36c0,65.7-32.7,97.8-50.4,110.4c-11.8,8.5-14.5,24.9-6.1,36.7
		c4.9,6.9,12.9,11,21.4,11h379.3c14.6,0,26.3-11.8,26.3-26.4C216.8,159.3,212.8,151.3,205.9,146.4z M-0.1,89.4
		c-11.4,8.7-26.8,13.1-46.2,13.1c-12.2,0.1-24.3-2.3-35.5-7.1c-10.8-4.8-19.2-11.3-25.1-19.7s-9-12.9-9-29.3s28.1-17.3,30.9,0
		c0.7,9.7,3.3,17.9,10,23.4s16.2,8.3,28.7,8.3c10.7,0,18.8-2.2,24.2-6.5c5.3-4.1,8.3-10.6,8.1-17.3c0-7.8-2.7-13.8-8.2-18.1
		s-15.4-8.5-29.7-12.8S-77.6,14.3-86.1,9c-16.2-10.2-24.3-23.4-24.3-39.8c0-14.3,5.8-26.1,17.5-35.4s26.8-13.9,45.5-13.9
		c12.4,0,23.4,2.3,33.1,6.8c9.3,4.2,17.2,11,22.8,19.5c5.3,8,8.2,17.4,8.3,27c0,0.8-0.1,1.6-0.3,2.4C14.2-16.5,0.6-15-7.9-19.2
		c-3.6-1.8-5.9-5.4-6.1-9.4c-0.5-8-3.4-14.3-8.6-19c-5.8-5.2-14.1-7.9-25-7.9c-10.1,0-17.9,2.2-23.5,6.5s-8.4,10.3-8.4,18.1
		c0,6.5,3,11.9,9,16.3S-54.6-6-40.7-1.9s24.9,8.8,33.3,14S7.1,23.4,11,30.2c4.1,7.3,6.2,15.5,6,23.9C17,68.9,11.3,80.7-0.1,89.4
		L-0.1,89.4z M127.5-58.3L46.3,95.3c-2.5,5.5-9.1,7.9-14.6,5.4c-4.9-2.3-7.4-7.7-6-12.9l81.2-153.6c2.5-5.5,9.1-7.9,14.6-5.4
		C126.4-68.9,129-63.5,127.5-58.3L127.5-58.3z"/>
</symbol>
<g id="fondo">
	<path class="st1" d="M50.3,25.3v-7.5L43.9,7.1h3.7l4.3,7.5l4.3-7.5h3.7l-6.4,10.7v7.5H50.3z"/>
	<path class="st1" d="M57.4,21.8c-0.1-1.7,1.2-3.3,2.9-3.5l3-0.7c1.1-0.2,1.5-0.6,1.5-1.1c0-0.8-0.8-1.6-2-1.6
		c-1.3,0-2.3,0.9-2.5,2.1l-2.5-0.5c0.3-2.5,2.4-4.5,5-4.3c3,0,5,1.7,5,4.7v8.3h-2.7v-2.1c-0.6,1.5-2,2.3-3.6,2.3
		C58.9,25.6,57.4,24,57.4,21.8z M65,19.6V19c-0.3,0.4-0.8,0.6-1.2,0.7l-1.9,0.5c-0.9,0.3-1.4,0.8-1.4,1.5c0,0.8,0.7,1.4,1.5,1.4h0.1
		C63.5,23.1,65,21.4,65,19.6z"/>
	<path class="st1" d="M73.5,23.5v7.8h-3V12.7h2.8v2.1c0.6-1.5,2-2.3,3.6-2.3c3.1,0,5.4,2.5,5.4,6.6s-2.3,6.6-5.4,6.6
		C75.4,25.6,74.1,24.8,73.5,23.5z M79.3,19c0-2.1-1.2-3.7-2.9-3.7s-2.9,1.6-2.9,3.7s1.2,3.7,2.9,3.7C78.2,22.6,79.3,21,79.3,19z"/>
	<path class="st1" d="M83.7,19c0-3.8,2.3-6.6,5.8-6.6c3.6,0,5.8,2.8,5.8,6.6c0,0.3,0,0.6-0.1,0.8h-8.5c0,1.7,1.4,3,3,3.1
		c1.1,0.1,2.2-0.6,2.7-1.6l2.6,0.6c-0.8,2.3-2.9,3.8-5.3,3.8C85.9,25.6,83.7,22.7,83.7,19z M86.8,17.7h5.5c-0.1-1.5-1.4-2.6-2.8-2.6
		C88.1,15,86.9,16.3,86.8,17.7z"/>
	<path class="st1" d="M98.3,25.3v-10h-1.9v-2.6h1.9v-1.8c0-3.5,1.2-5.3,3.8-5.3c0.6,0,1.2,0.1,1.7,0.3v2.7c-0.3-0.1-0.7-0.1-0.9-0.1
		c-1.2,0-1.7,0.9-1.7,2.3v1.8h2.4v2.6h-2.4v9.9h-3L98.3,25.3L98.3,25.3z"/>
	<path class="st1" d="M105.3,31.4v-2.7c0.2,0,0.3,0.1,0.5,0.1c1.5,0,2.2-0.9,2.7-3.5l-4.7-12.6h3.2l3,8.8l3-8.8h3.2l-4.7,12.6
		c-1.9,5.2-3.2,6.3-5.1,6.3C106,31.6,105.6,31.5,105.3,31.4z"/>
	<path class="st1" d="M131,25.3l-3.5-13.5L124,25.2h-3l-5.1-18.1h3.4l3.5,13.4L126,7.1h3.1l3.3,13.4l3.5-13.4h3.5l-5.2,18.2
		L131,25.3z"/>
	<path class="st1" d="M138.9,19c0-3.8,2.3-6.6,5.8-6.6c3.6,0,5.8,2.8,5.8,6.6c0,0.3,0,0.6-0.1,0.8h-8.5c0,1.7,1.4,3,3,3.1
		c1.1,0.1,2.2-0.6,2.7-1.6l2.6,0.6c-0.8,2.3-2.9,3.8-5.3,3.8C141.1,25.6,138.9,22.7,138.9,19z M141.9,17.7h5.6
		c-0.1-1.6-1.5-2.7-3-2.6S142,16.4,141.9,17.7z"/>
	<path class="st1" d="M155.5,23.2v2.1h-2.8V5.8h3v8.7c0.7-1.3,1.9-2,3.4-2c3.1,0,5.4,2.5,5.4,6.6s-2.3,6.6-5.4,6.6
		C157.5,25.6,156,24.6,155.5,23.2z M161.5,19c0-2.1-1.2-3.7-2.9-3.7s-2.9,1.6-2.9,3.7s1.2,3.7,2.9,3.7S161.5,21,161.5,19L161.5,19z"
		/>
</g>
<g id="logo">
	
		<linearGradient id="Fondo_Circ_1_" gradientUnits="userSpaceOnUse" x1="2.18" y1="3999.7004" x2="29.92" y2="3971.9604" gradientTransform="matrix(1 0 0 1 0 -3969.7803)">
		<stop  offset="0" style="stop-color:#6F0383"/>
		<stop  offset="1" style="stop-color:#A221AF"/>
	</linearGradient>
	<path id="Fondo_Circ" class="st2" d="M7.3,0h17.5c4,0,7.3,3.3,7.3,7.3v17.5c0,4-3.3,7.3-7.3,7.3H7.3c-4,0-7.3-3.3-7.3-7.3V7.3
		C0,3.3,3.3,0,7.3,0z"/>
	
		<use xlink:href="#Campana_2_"  width="477" height="486" x="-238.5" y="-243" transform="matrix(2.000000e-02 0 0 2.000000e-02 15.2841 7.2947)" style="overflow:visible;"/>
	<g id="Yapefy">
		<path id="y" class="st3" d="M6.9,24.7c-0.4,1.1-1.5,3.4-3.1,3.6c-0.2,0-0.4,0-0.6-0.1c-1.2-0.7-0.9-1.9-0.3-2.9
			c0.7-1.1,1.8-2,3-2.5c1.4-0.5,18.8-3.1,22.7-3.4c0.3,0,0.5,0,0.7,0.2c0.1,0.1,0.1,0.3,0.1,0.4c0,0.2-0.2,0.4-0.4,0.4
			C27.6,20.5,9,23,5.9,24.1c-1.2,0.6-2,1.6-2.4,2.8c0,0.2,0.2,0.4,0.4,0.4c0.1,0,0.2,0,0.2-0.1c0.6-0.5,1.1-1.2,1.4-1.9
			c0.5-1,1.4-4.1,1.6-4.7c-0.5,0.5-1,1.1-1.7,0.7c-1.1-0.5,0.2-3.6,0.2-3.6s0.2-0.6,0.1-0.8s0-0.4,0.1-0.4c0.4,0,1.2-0.1,0.8,1.1
			c-0.3,0.5-0.4,1.1-0.5,1.7c-0.2,1,0.4,0.9,0.9,0.3c0.2-0.3,0.4-0.6,0.6-1c0.3-0.8,0.5-1.5,0.8-2.2c0.1-0.4,0.8-0.6,1.1-0.6
			c0.1,0,0.1,0,0.1,0.1v0.2C8.8,17.6,7.4,23.1,6.9,24.7z"/>
		<path id="a" class="st3" d="M13,15.9c-0.2,0.9-0.4,1.8-0.5,2.7c-0.2,1.2,0.1,1.2,0.9,0.1c0.1-0.2,0.4,0.2,0.3,0.4
			c-0.1,0.4-0.3,0.8-0.6,1.1c-0.2,0.1-1.2,1.2-1.7-0.1C11.1,20.6,10.6,21,10,21c-0.8,0-1-1.1-0.9-1.9c0.1-0.9,0.4-1.7,0.9-2.5
			c0.2-0.4,0.5-0.7,0.8-0.9c0.4-0.2,1-0.2,1.3,0.2c0-0.1,0.1-0.5,0.3-0.5S13,15.4,13,15.9z M10.7,17c-0.3,0.5-1,1.8-0.4,2.6
			c0.1,0.1,0.2,0.2,0.4,0.1c0.2-0.2,0.5-0.4,0.6-0.7c0.4-0.7,0.6-1.4,0.6-2.2c0-0.1-0.1-0.2-0.2-0.2C11.3,16.5,10.9,16.7,10.7,17z"
			/>
		<path id="p" class="st3" d="M13.8,15.3c0-0.1,0-0.1,0.1-0.1l0,0c0.2,0,0.5-0.1,0.7,0.1v0.5c0.3-0.4,0.7-1,1.5-0.8
			c0.6,0.2,0.7,1.3,0.6,2c-0.2,1.2-0.6,2.8-1.5,3.3c-0.5,0.2-1.1,0.1-1.5-0.3c-0.1,1.1-0.4,2.2-0.5,3.1c0,0.2-0.3,0.4-0.5,0.4
			s-0.4-0.2-0.3-0.5c0.3-2.1,0.8-4.5,1.2-6.6C13.6,16,13.7,15.7,13.8,15.3z M15.1,19c0.5-0.8,1-3,0.2-2.9C14.7,16.2,14.2,18,14,19
			c0,0.2,0.1,0.4,0.3,0.4c0,0,0,0,0.1,0C14.7,19.4,14.9,19.2,15.1,19z"/>
		<path id="e" class="st3" d="M19.9,18c0.1,0.2,0.2,0.4,0.2,0.6c0,0.1,0,0.2-0.1,0.2c-0.3,0.4-0.7,0.8-1.2,1.1c-1,0.4-1.8,0.3-2-0.8
			c0-0.9,0.1-1.8,0.3-2.6c0-0.1,0-0.2,0.1-0.2c0.2-0.8,0.8-1.5,1.6-1.9c1.1-0.4,1.6,0.3,1.5,1.1c-0.3,1.1-1.2,2-2.3,2.2
			c-0.6,2.2,1.5,0.7,1.7,0.2C19.7,18,19.9,18,19.9,18z M19.4,15.5c0-0.1-0.1-0.1-0.2-0.1H19c-0.4,0.4-0.7,0.9-0.8,1.4l0,0
			C18.9,16.7,19.4,16.2,19.4,15.5z"/>
		<path id="y-2" class="st3" d="M24.1,21.7c-1,0.6-1.7,1.5-2.1,2.6c0,0.2,0.2,0.4,0.4,0.4c0.1,0,0.2,0,0.2-0.1
			c0.6-0.5,1.1-1.2,1.4-1.9c0.5-1,1.4-4.1,1.6-4.7c-0.5,0.5-1,1.1-1.7,0.7c-1.1-0.5,0.1-3.5,0.2-3.6s0.2-0.6,0.1-0.8S24,14,24.2,14
			c0.4,0,1.2-0.1,0.8,1.1c-0.3,0.5-0.4,1.1-0.5,1.7c-0.2,1.1,0.5,0.8,1,0.2c0.2-0.2,0.3-0.5,0.4-0.8c0.3-0.8,0.6-1.6,0.8-2.3
			c0.1-0.4,0.8-0.6,1.1-0.6c0.1,0,0.1,0,0.1,0.1v0.2c-0.6,1.6-2,7-2.5,8.6c-0.4,1.1-1.5,3.4-3.1,3.6c-0.2,0-0.4,0-0.6-0.1
			c-1.2-0.7-0.9-1.9-0.3-2.9c0.7-1.1,1.7-2,2.9-2.4h0.3c0.2,0.1,0.2,0.4,0,0.7C24.6,21.3,24.3,21.5,24.1,21.7z"/>
		<path id="f" class="st3" d="M24,13.7c-0.1,0-0.1,0-0.2-0.1l-0.1-0.1l-0.1-0.1h-0.3c-0.2,0-0.3,0.1-0.5,0.2s-0.1,0.2-0.2,0.3
			c-0.1,0.3-0.1,0.5-0.2,0.9l0,0c0.2,0,0.4,0,0.6-0.1c0.3,0,0.3,0.7,0.2,0.9c-0.1,0.1-0.1,0.1-0.2,0.1c-0.2,0-0.5,0-0.7,0.1
			c-0.1,0-0.1,0-0.1,0.1l0,0c-0.1,0.7-0.1,1.1-0.2,1.8c-0.1,0.5-0.1,1.1-0.1,1.6c0,0.4-1.1,0.3-1-0.1s0.1-1,0.2-1.5
			c0.1-0.7,0.1-1,0.2-1.7H21c-0.2-0.1-0.2-0.3-0.2-0.5s0.1-0.5,0.3-0.6h0.5c0.1-0.5,0.2-1,0.5-1.5s0.8-0.9,1.4-1h0.3
			c0.5,0.2,0.8,0.6,0.8,1.1c0,0.1-0.1,0.2-0.2,0.2L24,13.7z"/>
	</g>
</g>
</svg>