<svg width="164.49998" height="32.1" id="Capa_1" data-name="Capa 1" xmlns="http://www.w3.org/2000/svg"
    xmlns:xlink="http://www.w3.org/1999/xlink" viewBox="0 0 164.49998 32.1">
    <defs>
        <style>
            .cls-1{fill:#00e2c5;}.cls-2{fill:#f4f4f4;}.cls-3{fill:url(#Degradado_sin_nombre);}.cls-4{fill:#fff;}</style>
        <linearGradient id="Degradado_sin_nombre" x1="2.18004" y1="3999.70034" x2="29.92004"
            y2="3971.96035" gradientTransform="translate(0 -3969.7804)"
            gradientUnits="userSpaceOnUse">
            <stop offset="0" stop-color="#6f0383" />
            <stop offset="1" stop-color="#a221af" />
        </linearGradient>
        <symbol id="Campana_2_" data-name="Campana 2 " viewBox="0 0 477.022 486.015">
            <path class="cls-1"
                d="M38.35557,347a132.81322,132.81322,0,0,0,80.9,101.8,19.3971,19.3971,0,0,1,10.8,25.1,19.16239,19.16239,0,0,1-5.9,7.9h0a19.17306,19.17306,0,0,1-15.3,3.9,132.68491,132.68491,0,0,1-108.7-136.9,19.24054,19.24054,0,0,1,7.3-14h0C19.05557,325.5,36.05557,332.4,38.35557,347Z" />
            <path class="cls-1"
                d="M436.45556,347c-7.7,45.6-40.1,84.4-85.2,101.8-14.5,5.6-17.4,23.7-5.2,33h0a20.84711,20.84711,0,0,0,16.2,3.9c68.9-11.9,118-70.5,114.6-136.9a18.66881,18.66881,0,0,0-7.7-14h0C456.85557,325.5,439.05557,332.4,436.45556,347Z" />
            <path class="cls-1"
                d="M272.35556,36h-65.9a9.7753,9.7753,0,0,1-9.8-9.6,11.15131,11.15131,0,0,1,.5-3.1c5.5-16.4,22.3-23.3,42.2-23.3s36.7,6.9,42.3,23.3a9.731,9.731,0,0,1-6.3,12.2A9.42626,9.42626,0,0,1,272.35556,36Z" />
            <path class="cls-1"
                d="M444.45556,96.6c-17.7,12.6-50.4,44.7-50.4,110.4v70.7c0,71.8-44.9,134.9-110.5,155.3,0,0-10.3,41.3-44,41.3s-44.2-41.3-44.2-41.3c-65.7-20.4-110.5-83.6-110.5-155.3V207c0-65.7-32.7-97.8-50.4-110.4a26.30129,26.30129,0,0,1,15.3-47.7h379.3a26.35316,26.35316,0,0,1,15.4,47.7Zm-206,57c-11.4-8.7-26.8-13.1-46.2-13.1a88.29844,88.29844,0,0,0-35.5,7.1c-10.8,4.8-19.2,11.3-25.1,19.7s-9,12.9-9,29.3,28.1,17.3,30.9,0c.7-9.7,3.3-17.9,10-23.4s16.2-8.3,28.7-8.3c10.7,0,18.8,2.2,24.2,6.5a21.13448,21.13448,0,0,1,8.1,17.3c0,7.8-2.7,13.8-8.2,18.1s-15.4,8.5-29.7,12.8-25.7,9.1-34.2,14.4c-16.2,10.2-24.3,23.4-24.3,39.8,0,14.3,5.8,26.1,17.5,35.4s26.8,13.9,45.5,13.9c12.4,0,23.4-2.3,33.1-6.8a53.95363,53.95363,0,0,0,22.8-19.5,49.90514,49.90514,0,0,0,8.3-27,9.86251,9.86251,0,0,0-.3-2.4c-2.3-7.9-15.9-9.4-24.4-5.2a11.09509,11.09509,0,0,0-6.1,9.4c-.5,8-3.4,14.3-8.6,19-5.8,5.2-14.1,7.9-25,7.9-10.1,0-17.9-2.2-23.5-6.5s-8.4-10.3-8.4-18.1c0-6.5,3-11.9,9-16.3s15.9-8.6,29.8-12.7,24.9-8.8,33.3-14,14.5-11.3,18.4-18.1a46.43468,46.43468,0,0,0,6-23.9c0-14.8-5.7-26.6-17.1-35.3Zm127.6,147.7-81.2-153.6a10.99755,10.99755,0,0,0-20.6,7.5l81.2,153.6a11.05586,11.05586,0,0,0,14.6,5.4,10.92014,10.92014,0,0,0,6-12.9Z" />
        </symbol>
    </defs>
    <g id="fondo">
        <path class="cls-2" d="M50.3,25.3V17.8L43.9,7.1h3.7l4.3,7.5,4.3-7.5h3.7L53.5,17.8v7.5Z"
            transform="translate(0 0.00001)" />
        <path class="cls-2"
            d="M57.4,21.8a3.3785,3.3785,0,0,1,2.9-3.5l3-.7c1.1-.2,1.5-.6,1.5-1.1a1.83,1.83,0,0,0-2-1.6A2.48935,2.48935,0,0,0,60.3,17l-2.5-.5a4.75228,4.75228,0,0,1,5-4.3c3,0,5,1.7,5,4.7v8.3H65.1V23.1a3.71292,3.71292,0,0,1-3.6,2.3C58.9,25.6,57.4,24,57.4,21.8ZM65,19.6V19a2.13417,2.13417,0,0,1-1.2.7l-1.9.5c-.9.3-1.4.8-1.4,1.5A1.453,1.453,0,0,0,62,23.1h.1C63.5,23.1,65,21.4,65,19.6Z"
            transform="translate(0 0.00001)" />
        <path class="cls-2"
            d="M73.5,23.5v7.8h-3V12.7h2.8v2.1a3.71292,3.71292,0,0,1,3.6-2.3c3.1,0,5.4,2.5,5.4,6.6s-2.3,6.6-5.4,6.6A3.9326,3.9326,0,0,1,73.5,23.5ZM79.3,19c0-2.1-1.2-3.7-2.9-3.7s-2.9,1.6-2.9,3.7,1.2,3.7,2.9,3.7C78.2,22.6,79.3,21,79.3,19Z"
            transform="translate(0 0.00001)" />
        <path class="cls-2"
            d="M83.7,19c0-3.8,2.3-6.6,5.8-6.6,3.6,0,5.8,2.8,5.8,6.6a1.9494,1.9494,0,0,1-.1.8H86.7a3.166,3.166,0,0,0,3,3.1,2.85657,2.85657,0,0,0,2.7-1.6l2.6.6a5.58558,5.58558,0,0,1-5.3,3.8C85.9,25.6,83.7,22.7,83.7,19Zm3.1-1.3h5.5a2.82487,2.82487,0,0,0-2.8-2.6A2.73359,2.73359,0,0,0,86.8,17.7Z"
            transform="translate(0 0.00001)" />
        <path class="cls-2"
            d="M98.3,25.3v-10H96.4V12.7h1.9V10.9c0-3.5,1.2-5.3,3.8-5.3a4.67117,4.67117,0,0,1,1.7.3V8.6a3.08485,3.08485,0,0,0-.9-.1c-1.2,0-1.7.9-1.7,2.3v1.8h2.4v2.6h-2.4v9.9h-3v.2Z"
            transform="translate(0 0.00001)" />
        <path class="cls-2"
            d="M105.3,31.4V28.7c.2,0,.3.1.5.1,1.5,0,2.2-.9,2.7-3.5l-4.7-12.6H107l3,8.8,3-8.8h3.2l-4.7,12.6c-1.9,5.2-3.2,6.3-5.1,6.3A3.59432,3.59432,0,0,1,105.3,31.4Z"
            transform="translate(0 0.00001)" />
        <path class="cls-2"
            d="M131,25.3l-3.5-13.5L124,25.2h-3L115.9,7.1h3.4l3.5,13.4L126,7.1h3.1l3.3,13.4,3.5-13.4h3.5l-5.2,18.2Z"
            transform="translate(0 0.00001)" />
        <path class="cls-2"
            d="M138.9,19c0-3.8,2.3-6.6,5.8-6.6,3.6,0,5.8,2.8,5.8,6.6a1.94922,1.94922,0,0,1-.1.8h-8.5a3.166,3.166,0,0,0,3,3.1,2.85656,2.85656,0,0,0,2.7-1.6l2.6.6a5.58559,5.58559,0,0,1-5.3,3.8C141.1,25.6,138.9,22.7,138.9,19Zm3-1.3h5.6a2.80714,2.80714,0,0,0-5.6,0Z"
            transform="translate(0 0.00001)" />
        <path class="cls-2"
            d="M155.5,23.2v2.1h-2.8V5.8h3v8.7a3.6846,3.6846,0,0,1,3.4-2c3.1,0,5.4,2.5,5.4,6.6s-2.3,6.6-5.4,6.6A4.09269,4.09269,0,0,1,155.5,23.2Zm6-4.2c0-2.1-1.2-3.7-2.9-3.7s-2.9,1.6-2.9,3.7,1.2,3.7,2.9,3.7,2.9-1.7,2.9-3.7Z"
            transform="translate(0 0.00001)" />
    </g>
    <g id="logo">
        <path id="Fondo_Circ" data-name="Fondo Circ" class="cls-3"
            d="M7.3,0H24.8a7.341,7.341,0,0,1,7.3,7.3V24.8a7.341,7.341,0,0,1-7.3,7.3H7.3A7.341,7.341,0,0,1,0,24.8V7.3A7.341,7.341,0,0,1,7.3,0Z"
            transform="translate(0 0.00001)" />
        <use width="477.02182" height="486.01528"
            transform="matrix(0.02, 0, 0, -0.02, 10.5139, 12.15491)" xlink:href="#Campana_2_" />
        <g id="Yapefy">
            <path id="y" class="cls-4"
                d="M6.9,24.7c-.4,1.1-1.5,3.4-3.1,3.6a1.26834,1.26834,0,0,1-.6-.1c-1.2-.7-.9-1.9-.3-2.9a6.655,6.655,0,0,1,3-2.5c1.4-.5,18.8-3.1,22.7-3.4a.84375.84375,0,0,1,.7.2.60123.60123,0,0,1,.1.4.43016.43016,0,0,1-.4.4c-1.4.1-20,2.6-23.1,3.7a4.72934,4.72934,0,0,0-2.4,2.8.43015.43015,0,0,0,.4.4c.1,0,.2,0,.2-.1a5.22255,5.22255,0,0,0,1.4-1.9c.5-1,1.4-4.1,1.6-4.7-.5.5-1,1.1-1.7.7-1.1-.5.2-3.6.2-3.6s.2-.6.1-.8,0-.4.1-.4c.4,0,1.2-.1.8,1.1a4.7956,4.7956,0,0,0-.5,1.7c-.2,1,.4.9.9.3a8.79413,8.79413,0,0,0,.6-1c.3-.8.5-1.5.8-2.2.1-.4.8-.6,1.1-.6.1,0,.1,0,.1.1v.2C8.8,17.6,7.4,23.1,6.9,24.7Z"
                transform="translate(0 0.00001)" />
            <path id="a" class="cls-4"
                d="M13,15.9a25.57817,25.57817,0,0,0-.5,2.7c-.2,1.2.1,1.2.9.1.1-.2.4.2.3.4a2.38381,2.38381,0,0,1-.6,1.1c-.2.1-1.2,1.2-1.7-.1A1.69345,1.69345,0,0,1,10,21c-.8,0-1-1.1-.9-1.9a5.81277,5.81277,0,0,1,.9-2.5,2.361,2.361,0,0,1,.8-.9,1.06214,1.06214,0,0,1,1.3.2c0-.1.1-.5.3-.5S13,15.4,13,15.9ZM10.7,17c-.3.5-1,1.8-.4,2.6.1.1.2.2.4.1.2-.2.5-.4.6-.7a4.28219,4.28219,0,0,0,.6-2.2.21508.21508,0,0,0-.2-.2A.95072.95072,0,0,0,10.7,17Z"
                transform="translate(0 0.00001)" />
            <path id="p" class="cls-4"
                d="M13.8,15.3c0-.1,0-.1.1-.1h0c.2,0,.5-.1.7.1v.5c.3-.4.7-1,1.5-.8.6.2.7,1.3.6,2-.2,1.2-.6,2.8-1.5,3.3a1.39687,1.39687,0,0,1-1.5-.3c-.1,1.1-.4,2.2-.5,3.1,0,.2-.3.4-.5.4a.34984.34984,0,0,1-.3-.5c.3-2.1.8-4.5,1.2-6.6A4.25282,4.25282,0,0,1,13.8,15.3ZM15.1,19c.5-.8,1-3,.2-2.9-.6.1-1.1,1.9-1.3,2.9,0,.2.1.4.3.4h.1A1.01219,1.01219,0,0,0,15.1,19Z"
                transform="translate(0 0.00001)" />
            <path id="e" class="cls-4"
                d="M19.9,18a1.42127,1.42127,0,0,1,.2.6c0,.1,0,.2-.1.2a4.26284,4.26284,0,0,1-1.2,1.1c-1,.4-1.8.3-2-.8a10.89978,10.89978,0,0,1,.3-2.6c0-.1,0-.2.1-.2a3.00285,3.00285,0,0,1,1.6-1.9c1.1-.4,1.6.3,1.5,1.1A3.03141,3.03141,0,0,1,18,17.7c-.6,2.2,1.5.7,1.7.2C19.7,18,19.9,18,19.9,18Zm-.5-2.5c0-.1-.1-.1-.2-.1H19a2.85083,2.85083,0,0,0-.8,1.4h0A1.305,1.305,0,0,0,19.4,15.5Z"
                transform="translate(0 0.00001)" />
            <path id="y-2" class="cls-4"
                d="M24.1,21.7A4.91419,4.91419,0,0,0,22,24.3a.43016.43016,0,0,0,.4.4c.1,0,.2,0,.2-.1A5.22263,5.22263,0,0,0,24,22.7c.5-1,1.4-4.1,1.6-4.7-.5.5-1,1.1-1.7.7-1.1-.5.1-3.5.2-3.6a1.06252,1.06252,0,0,0,.1-.8c-.1-.2-.2-.3,0-.3.4,0,1.2-.1.8,1.1a4.7956,4.7956,0,0,0-.5,1.7c-.2,1.1.5.8,1,.2a2.01,2.01,0,0,0,.4-.8c.3-.8.6-1.6.8-2.3.1-.4.8-.6,1.1-.6.1,0,.1,0,.1.1v.2c-.6,1.6-2,7-2.5,8.6-.4,1.1-1.5,3.4-3.1,3.6a1.26834,1.26834,0,0,1-.6-.1c-1.2-.7-.9-1.9-.3-2.9a5.66478,5.66478,0,0,1,2.9-2.4h.3c.2.1.2.4,0,.7C24.6,21.3,24.3,21.5,24.1,21.7Z"
                transform="translate(0 0.00001)" />
            <path id="f" class="cls-4"
                d="M24,13.7c-.1,0-.1,0-.2-.1l-.1-.1-.1-.1h-.3c-.2,0-.3.1-.5.2s-.1.2-.2.3c-.1.3-.1.5-.2.9h0a1.26834,1.26834,0,0,0,.6-.1c.3,0,.3.7.2.9-.1.1-.1.1-.2.1a1.70178,1.70178,0,0,0-.7.1c-.1,0-.1,0-.1.1h0c-.1.7-.1,1.1-.2,1.8a8.602,8.602,0,0,0-.1,1.6c0,.4-1.1.3-1-.1s.1-1,.2-1.5c.1-.7.1-1,.2-1.7H21c-.2-.1-.2-.3-.2-.5a.71275.71275,0,0,1,.3-.6h.5a4.42374,4.42374,0,0,1,.5-1.5,2.06755,2.06755,0,0,1,1.4-1h.3a1.16993,1.16993,0,0,1,.8,1.1.21508.21508,0,0,1-.2.2Z"
                transform="translate(0 0.00001)" />
        </g>
    </g>
</svg>