<svg id="Logo" xmlns="http://www.w3.org/2000/svg" xmlns:xlink="http://www.w3.org/1999/xlink" viewBox="0 0 648 648"><defs><style>.cls-1{fill:url(#Degradado_sin_nombre_5);}.cls-2{fill:#00e2c5;}.cls-3,.cls-4{fill:#fff;}.cls-4{stroke:#fff;stroke-miterlimit:10;stroke-width:2px;}</style><linearGradient id="Degradado_sin_nombre_5" x1="35.9156" y1="1312.0781" x2="612.07814" y2="735.91564" gradientTransform="translate(0 -700)" gradientUnits="userSpaceOnUse"><stop offset="0" stop-color="#6f0383"/><stop offset="1" stop-color="#a221af"/></linearGradient></defs><path id="Fondo_radius2" data-name="Fondo radius2" class="cls-1" d="M525.3,648H122.7A122.63433,122.63433,0,0,1,0,525.4V122.6A122.63432,122.63432,0,0,1,122.7,0H525.3A122.63434,122.63434,0,0,1,648,122.6V525.3A122.65568,122.65568,0,0,1,525.3,648Z"/><g id="Logo-centrado"><path class="cls-2" d="M239.63079,125.47955h0a9.45078,9.45078,0,0,1-3.14235-5.5973c-1.08018-26.80816,17.47932-50.474,43.79647-54.9911a7.87654,7.87654,0,0,1,6.28469,1.57118h0a10.56651,10.56651,0,0,1,2.35676,3.14234,7.84186,7.84186,0,0,1-4.22252,10.21263,53.91344,53.91344,0,0,0-32.70006,41.14513A7.60575,7.60575,0,0,1,239.63079,125.47955Z"/><path class="cls-2" d="M425.61851,125.47955h0a6.77548,6.77548,0,0,0,3.14236-5.5973c1.27657-26.80816-18.46128-50.474-46.15324-54.9911a8.00592,8.00592,0,0,0-6.38289,1.57118h0a7.61824,7.61824,0,0,0,2.25855,13.355c18.0685,7.07028,31.1289,22.58563,34.27123,41.14513C413.54012,126.65793,420.70859,129.21109,425.61851,125.47955Z"/><path class="cls-2" d="M347.45263,246.26356a3.81674,3.81674,0,0,1,2.455,4.81171c-2.35676,6.67748-8.93606,9.42705-17.08652,9.42705-7.95407,0-14.72975-2.74954-16.9883-9.42705a4.40322,4.40322,0,0,1-.09821-1.08019,3.76173,3.76173,0,0,1,4.02614-3.82973h26.71C346.667,245.969,347.05981,245.969,347.45263,246.26356Z"/><path class="cls-2" d="M420.02122,230.159a10.58426,10.58426,0,0,1-10.409,10.60543H256.61911a10.20806,10.20806,0,0,1-8.64146-4.61532,10.41,10.41,0,0,1,2.35676-14.72976c7.16847-5.10631,20.22887-18.0685,20.22887-44.48387V148.458c0-29.06672,18.06849-54.4019,44.48385-62.45417,0,0,4.22252-16.69372,17.77391-16.69372,13.74778,0,17.77392,16.69372,17.77392,16.69372,26.41535,8.24867,44.48385,33.682,44.48385,62.45417v28.47753c0,26.41536,13.06037,39.47575,20.22887,44.48387A10.486,10.486,0,0,1,420.02122,230.159Zm-87.29835-31.52169a16.69618,16.69618,0,0,0,7.0703-13.94416,21.49283,21.49283,0,0,0-2.35676-9.72164,22.84884,22.84884,0,0,0-7.36488-7.36488c-3.24053-2.25856-7.85587-4.02614-13.55136-5.5973-5.49912-1.66937-9.72164-3.24055-11.98022-5.10631a8.196,8.196,0,0,1-3.82973-6.3829,9.12285,9.12285,0,0,1,3.24054-7.36488,15.90549,15.90549,0,0,1,9.52525-2.65135c4.61534,0,7.85587.88378,10.21263,3.14235a10.99141,10.99141,0,0,1,3.53514,7.56127,4.22889,4.22889,0,0,0,2.455,3.82973c3.53515,1.66937,8.93606.88378,9.81984-2.25857a3.02893,3.02893,0,0,0,.09821-.88378,18.81589,18.81589,0,0,0-3.24054-10.70361,20.72108,20.72108,0,0,0-9.13244-7.85587,30.64207,30.64207,0,0,0-13.355-2.74956c-7.56129,0-13.74777,1.86576-18.46128,5.49911-4.71351,3.82973-7.16847,8.54326-7.16847,14.337,0,6.6775,3.24053,11.882,9.81983,15.90814,3.53515,2.25856,7.95408,4.02614,13.74778,5.7937,5.7937,1.86576,9.81984,3.53514,11.98021,5.10631,2.25855,1.66937,3.24054,4.22253,3.24054,7.36488a8.65029,8.65029,0,0,1-3.24054,7.07028c-2.16034,1.66937-5.49911,2.65135-9.81984,2.65135-5.00812,0-8.93605-1.08019-11.58739-3.24055-2.74955-2.25857-3.82973-5.49911-4.02614-9.427-1.08019-7.07028-12.373-6.67749-12.373,0s1.08018,8.54326,3.82973,11.882a24.92913,24.92913,0,0,0,10.21262,7.95407,36.17056,36.17056,0,0,0,14.337,2.74956c7.463-.3928,13.64948-2.16037,18.363-5.59732Zm51.35774-59.60641a4.32478,4.32478,0,0,0-8.15045-2.84775l-32.79829,61.96317a4.32478,4.32478,0,0,0,8.15046,2.84775l32.79828-61.96317Z"/><g id="Yapefy"><path id="y" class="cls-3" d="M156.84957,496.08023c-7.07028,20.91627-29.26312,65.4983-59.70462,69.32806a20.94383,20.94383,0,0,1-11.09642-2.25855C63.5611,550.384,69.06021,525.93253,80.64762,506.58746a117.19911,117.19911,0,0,1,58.82082-48.60819c26.90635-10.409,364.807-59.60643,441.49992-66.6767,5.49908-.491,10.60541-.29458,13.74777,4.22252a18.94886,18.94886,0,0,1,2.65137,8.64145,7.64419,7.64419,0,0,1-7.07029,7.36488c-31.71807,3.82973-391.90974,51.65235-453.08732,72.0776-11.9802,1.57118-45.36765,33.09284-46.84062,53.41991a6.77069,6.77069,0,0,0,6.2847,7.36488,8.4429,8.4429,0,0,0,4.61532-1.08016c10.409-7.16847,23.17481-27.29914,26.90635-36.628,10.409-18.46128,26.41536-78.85329,30.24511-91.02991-8.93606,9.72163-19.63968,20.42525-33.09285,14.337-22.09464-9.918,3.14234-69.72085,3.14234-69.72085s4.02614-12.2748,2.74956-14.72976c-1.86577-4.02614-.491-8.24865,2.455-8.54327,7.07028-.6874,22.782-.88378,14.72976,20.91624-5.40091,14.337-7.36488,18.46129-9.81984,33.28925-3.24055,20.22887,7.56127,16.89013,16.89012,6.28469,3.82973-4.61534,8.93605-14.72976,11.09642-20.22887,5.9901-15.51533,10.409-29.16493,14.63155-43.30549,2.25856-7.36488,15.319-12.373,21.70185-11.48923a2.74467,2.74467,0,0,1,2.455,1.964,8.55067,8.55067,0,0,1,.0982,4.71351C195.14694,358.89711,167.06219,465.34415,156.84957,496.08023Z"/><path id="a" class="cls-3" d="M275.66961,324.23306c-3.53515,19.05048-7.56129,32.30726-10.60542,51.75056-3.82973,23.56761,2.455,23.56761,16.89014,2.74954,1.66938-3.82973,7.36487,3.14236,6.38289,8.24866-1.57118,8.93606-6.77568,15.80995-11.882,21.01445-3.24053,2.25855-23.17482,23.56761-33.28924-1.66939-4.81172,10.70362-12.1766,17.67571-25.33519,17.4793-15.51535-.29458-20.13067-21.60364-18.4613-37.41359,1.964-16.20273,9.427-36.3334,16.89012-49.39377,4.02614-7.16847,9.918-13.74777,16.20273-17.28292,8.54326-4.81171,18.4613-4.71351,24.35321,3.82973.6874-2.35675,2.35675-9.13243,5.79369-9.13243C270.75969,313.43124,275.5714,316.18081,275.66961,324.23306Zm-43.60009,21.60365c-6.6775,10.21262-18.6577,35.8424-8.54326,49.68838a6.43065,6.43065,0,0,0,7.16849,2.35676c4.71352-1.66939,8.24865-7.36488,10.70361-13.94418,3.24055-8.24866,12.66759-33.682,11.09642-43.50187a4.67762,4.67762,0,0,0-4.71352-4.02614c-5.4991-.09818-12.864,5.00812-15.71174,9.42705Z"/><path id="p" class="cls-3" d="M290.79215,314.11864a3.48685,3.48685,0,0,1,2.65137-2.65137c4.02614-.88378,9.72163-1.66938,13.74777,2.35676.88378.88378.491,1.66938.29458,3.82973l-.88377,5.10633c5.79369-8.64145,12.66758-19.3451,29.16493-15.81,11.48922,4.22252,13.355,24.84418,11.98021,39.37756-3.24053,22.782-11.5874,54.99109-28.67394,64.22173a26.85773,26.85773,0,0,1-29.65592-5.99011c-2.35676,21.01445-7.16847,41.93072-10.409,59.21362-.88377,4.61533-6.28469,7.46308-9.52525,7.85587-5.40091-.88378-7.36488-3.53515-6.38289-10.409,5.10632-40.26133,15.51533-87.69114,23.56761-127.36331C287.45341,329.33939,289.712,318.53757,290.79215,314.11864Zm25.33517,70.801c9.13244-15.90815,20.22887-58.03525,3.82973-55.97308-10.409,1.08019-20.62166,37.119-23.764,56.36587-.6874,4.22251,2.65137,7.56128,7.16847,7.56128,3.04419.19638,8.93609-1.3748,12.76582-7.95407Z"/><path id="e" class="cls-3" d="M410.39776,366.36016c2.65137,2.25855,4.71351,8.24866,4.81172,12.2748a6.93682,6.93682,0,0,1-1.57118,4.61533,82.29486,82.29486,0,0,1-24.15681,20.91625c-20.22887,8.64144-34.27123,6.38289-39.57393-14.63156-2.74955-11.48922,2.35675-36.72618,5.9901-49.68838a16.307,16.307,0,0,1,1.66939-4.61534c7.95407-16.89013,16.49731-31.71806,31.52168-36.72618,21.60365-7.16847,31.1289,6.38289,29.06673,22.38921-3.14236,20.62166-25.728,40.35954-45.36766,42.22531-11.5874,42.61809,28.47753,13.06037,33.09286,3.82973A3.38192,3.38192,0,0,1,410.39776,366.36016Zm-10.9982-48.6082c-.88378-1.08018-2.25855-2.25855-3.53514-2.35675a4.32779,4.32779,0,0,0-3.24054.88378c-5.40091,3.53515-14.337,19.34509-15.51533,26.41536a.79675.79675,0,0,0,.491.88378h.09821c10.409-.29459,23.56761-13.06038,22.48742-24.35319A6.63827,6.63827,0,0,0,399.39956,317.752Z"/><path id="y-2" class="cls-3" d="M491.01864,437.35761c-14.53335,7.56128-39.77034,33.682-41.04691,51.25956a6.77071,6.77071,0,0,0,6.28469,7.36488,8.4423,8.4423,0,0,0,4.61533-1.08019c10.409-7.16847,23.17483-27.29913,26.90635-36.628,10.409-18.46128,26.70994-78.65691,30.44147-91.02991-8.936,9.72163-19.63967,20.42525-33.09286,14.337-22.09464-9.918,3.14236-69.72085,3.14236-69.72085s4.02614-12.2748,2.74954-14.72976c-1.86576-4.02614-.491-8.24865,2.455-8.54327,7.07029-.6874,22.782-.88378,14.72975,20.91625-5.40091,14.337-7.36487,18.46128-9.81983,33.28924-3.53515,22.09464,9.72163,15.90815,19.34509,3.14236,3.53512-4.71351,5.40091-10.409,7.46305-15.80994,5.49909-14.63156,11.09641-30.63791,15.90815-45.07305,2.65137-7.36488,15.31892-12.373,21.70182-11.48923a2.7447,2.7447,0,0,1,2.455,1.964,8.55039,8.55039,0,0,1,.09817,4.71351c-10.70364,30.24509-38.78836,136.594-49.19736,167.42824-7.0703,20.91624-29.26311,65.49833-59.7046,69.328a20.94376,20.94376,0,0,1-11.09641-2.25855c-22.48742-12.76579-16.98831-37.21718-5.40091-56.56227a114.94213,114.94213,0,0,1,56.36586-47.62622,8.30408,8.30408,0,0,1,6.67748.09821c4.22252,2.25855,4.02614,7.16847.09821,14.337A28.23551,28.23551,0,0,1,491.01864,437.35761Z"/><path id="f" class="cls-4" d="M437.40232,323.25108c.0982-.29458,0-.491-.29459-.6874h-.29458a37.46822,37.46822,0,0,0-5.7937.88378c-4.02614-1.08019-4.71351-6.67748-4.22252-9.72164.29459-2.45495,1.964-7.85587,5.10633-9.13243a20.90962,20.90962,0,0,1,2.65137-.6874c2.25855-.29459,4.22252-.491,6.3829-.6874.0982,0,.0982,0,.0982-.09821h0c2.25855-8.93606,4.81171-24.84418,9.13244-32.79825,5.7937-10.409,15.319-18.4613,27.29913-20.03246a19.81808,19.81808,0,0,1,6.3829.29459c9.52525,1.964,16.20273,11.882,15.319,21.01447a4.39166,4.39166,0,0,1-4.02614,3.82973,25.20891,25.20891,0,0,1-4.71351-.09821,13.95146,13.95146,0,0,1-3.53515-1.57118,19.8195,19.8195,0,0,1-2.35675-2.65137,6.51246,6.51246,0,0,0-2.74954-1.964,14.19106,14.19106,0,0,0-5.40091-.88378,12.815,12.815,0,0,0-8.93606,4.71351,17.57821,17.57821,0,0,0-3.14236,5.7937c-1.964,6.38289-3.24054,15.80994-4.71351,22.48742,0,.0982,0,.0982.0982.0982,4.22252-.29458,8.24866-.6874,12.2748-.88378,5.00812-.29458,6.67748,12.9622,3.24053,16.69373a7.8552,7.8552,0,0,1-3.53514,1.964c-4.81172.29458-9.52526.491-13.94419.88377a1.615,1.615,0,0,0-1.57118,1.57118c-.88378,5.99011-7.36487,65.49834-7.85587,69.42627-.88378,7.36488-20.13066,5.7937-18.8541-2.35675Z"/></g></g></svg>